<svg width="40" height="40" viewBox="0 0 40 40" fill="none" xmlns="http://www.w3.org/2000/svg">
<path d="M31.6667 31.6667H8.33333V13.3334H31.6667M26.6667 1.66675V5.00008H13.3333V1.66675H10V5.00008H8.33333C6.48333 5.00008 5 6.48342 5 8.33342V31.6667C5 32.5508 5.35119 33.3987 5.97631 34.0238C6.60143 34.6489 7.44928 35.0001 8.33333 35.0001H31.6667C32.5507 35.0001 33.3986 34.6489 34.0237 34.0238C34.6488 33.3987 35 32.5508 35 31.6667V8.33342C35 7.44936 34.6488 6.60151 34.0237 5.97639C33.3986 5.35127 32.5507 5.00008 31.6667 5.00008H30V1.66675M28.3333 20.0001H20V28.3334H28.3333V20.0001Z" fill="#2D5F5D"/>
</svg>
