<svg width="40" height="40" viewBox="0 0 40 40" fill="none" xmlns="http://www.w3.org/2000/svg">
<path d="M19.9997 3.33325C10.833 3.33325 3.33301 10.8333 3.33301 19.9999C3.33301 29.1666 10.833 36.6666 19.9997 36.6666C29.1663 36.6666 36.6663 29.1666 36.6663 19.9999C36.6663 10.8333 29.1663 3.33325 19.9997 3.33325ZM19.9997 33.3333C12.6497 33.3333 6.66634 27.3499 6.66634 19.9999C6.66634 12.6499 12.6497 6.66659 19.9997 6.66659C27.3497 6.66659 33.333 12.6499 33.333 19.9999C33.333 27.3499 27.3497 33.3333 19.9997 33.3333ZM27.6497 12.6333L16.6663 23.6166L12.3497 19.3166L9.99967 21.6666L16.6663 28.3333L29.9997 14.9999L27.6497 12.6333Z" fill="#2D5F5D"/>
</svg>
