<svg width="40" height="40" viewBox="0 0 40 40" fill="none" xmlns="http://www.w3.org/2000/svg">
<path d="M20.0003 36.6666C16.1392 35.6944 12.9514 33.4788 10.437 30.0199C7.92255 26.561 6.66588 22.721 6.66699 18.4999V8.33325L20.0003 3.33325L33.3337 8.33325V18.4999C33.3337 22.7221 32.077 26.5627 29.5637 30.0216C27.0503 33.4805 23.8625 35.6955 20.0003 36.6666ZM20.0003 33.1666C22.8892 32.2499 25.2781 30.4166 27.167 27.6666C29.0559 24.9166 30.0003 21.861 30.0003 18.4999V10.6249L20.0003 6.87492L10.0003 10.6249V18.4999C10.0003 21.861 10.9448 24.9166 12.8337 27.6666C14.7225 30.4166 17.1114 32.2499 20.0003 33.1666Z" fill="#1F3A57"/>
</svg>
